<?xml version="1.0" standalone="no"?>
<!DOCTYPE svg PUBLIC "-//W3C//DTD SVG 1.1//EN"
 "http://www.w3.org/Graphics/SVG/1.1/DTD/svg11.dtd">
<!-- Created with svg_stack (http://github.com/astraw/svg_stack) -->
<svg xmlns:sodipodi="http://sodipodi.sourceforge.net/DTD/sodipodi-0.dtd" xmlns="http://www.w3.org/2000/svg" version="1.1" width="512.0" height="512.0">
  <defs/>
  <g id="id0:id0" transform="matrix(1.25,0,0,1.25,0.0,0.0)"><g transform="translate(0.000000,409.600000) scale(0.040000,-0.040000)" fill="#000000" stroke="none">
<path d="M0 5120 l0 -5120 5120 0 5120 0 0 5120 0 5120 -5120 0 -5120 0 0 -5120z m3728 2562 c9 -7 12 -88 10 -373 l-3 -364 -755 -5 c-821 -5 -784 -3 -820 -63 -18 -29 -20 -51 -20 -219 l0 -188 800 0 800 0 0 -370 0 -370 -800 0 -800 0 -2 -1592 -3 -1593 -368 -3 -367 -2 2 2217 c3 2100 4 2221 21 2278 72 239 241 451 445 554 101 51 227 85 352 94 100 8 1496 6 1508 -1z m1032 -2357 l0 -2045 2043 -2 2042 -3 0 -365 0 -365 -2405 0 -2405 0 -3 2413 -2 2412 365 0 365 0 0 -2045z"/>
</g>
</g>
  <g id="id1:id1" transform="matrix(1.25,0,0,1.25,0.0,0.0)"><g transform="translate(0.000000,409.600000) scale(0.040000,-0.040000)" fill="#000000" stroke="none">
<path d="M0 5120 l0 -5120 5120 0 5120 0 0 5120 0 5120 -5120 0 -5120 0 0 -5120z m3728 2562 c9 -7 12 -88 10 -373 l-3 -364 -755 -5 c-821 -5 -784 -3 -820 -63 -18 -29 -20 -51 -20 -219 l0 -188 800 0 800 0 0 -370 0 -370 -800 0 -800 0 -2 -1592 -3 -1593 -368 -3 -367 -2 2 2217 c3 2100 4 2221 21 2278 72 239 241 451 445 554 101 51 227 85 352 94 100 8 1496 6 1508 -1z m1032 -2357 l0 -2045 2043 -2 2042 -3 0 -365 0 -365 -2405 0 -2405 0 -3 2413 -2 2412 365 0 365 0 0 -2045z"/>
</g>
</g>
  <g id="id2:id2" transform="matrix(1.25,0,0,1.25,0.0,0.0)"><g transform="translate(0.000000,409.600000) scale(0.040000,-0.040000)" fill="#ffffff" stroke="none">
<path d="M0 9738 c0 -498 7 -587 29 -393 14 125 22 164 32 171 5 3 9 14 9 25 0 10 4 27 9 37 5 9 25 52 45 94 87 184 260 357 443 443 43 21 86 41 95 46 10 5 27 9 37 9 11 0 22 4 25 9 7 10 46 18 171 32 194 22 105 29 -393 29 l-502 0 0 -502z"/>
<path d="M9246 10231 c5 -5 50 -14 99 -20 125 -14 164 -22 171 -32 3 -5 14 -9 25 -9 10 0 27 -4 37 -9 9 -5 52 -25 95 -46 183 -86 356 -259 443 -443 20 -42 40 -85 45 -94 5 -10 9 -27 9 -37 0 -11 4 -22 9 -25 10 -7 18 -46 32 -171 22 -194 29 -105 29 393 l0 502 -502 0 c-310 0 -498 -4 -492 -9z"/>
<path d="M2178 7683 c18 -2 45 -2 60 0 15 2 0 4 -33 4 -33 0 -45 -2 -27 -4z"/>
<path d="M3728 7683 c10 -8 12 -88 10 -376 -2 -201 0 -363 5 -358 4 4 6 171 5 371 -3 313 -5 364 -18 367 -11 4 -12 2 -2 -4z"/>
<path d="M2048 7663 c6 -2 18 -2 25 0 6 3 1 5 -13 5 -14 0 -19 -2 -12 -5z"/>
<path d="M3690 7335 c0 -223 3 -335 10 -335 7 0 10 108 8 325 -2 199 1 326 6 328 6 2 2 6 -7 10 -16 6 -17 -17 -17 -328z"/>
<path d="M2170 7653 c-109 -6 -114 -23 -5 -23 48 0 86 -2 84 -4 -6 -7 -137 -8 -191 -2 -53 6 -67 -10 -15 -17 17 -3 6 -3 -25 -1 -31 2 -60 -1 -63 -6 -4 -6 6 -10 22 -10 20 0 24 -3 14 -9 -8 -5 -27 -5 -45 0 -38 11 -36 11 -36 0 0 -5 8 -12 18 -14 9 -3 0 -3 -20 -2 -39 3 -52 -9 -20 -19 9 -3 1 -4 -20 -1 -26 2 -41 -2 -53 -15 -15 -17 -15 -19 2 -24 10 -3 5 -4 -11 -2 -23 3 -41 -5 -80 -37 -28 -23 -53 -43 -55 -44 -2 -2 -2 -6 2 -9 3 -3 18 6 32 21 15 14 29 24 32 21 3 -2 -11 -21 -31 -41 -23 -23 -36 -30 -36 -20 0 8 -3 15 -8 15 -14 0 -32 -39 -26 -57 5 -15 4 -15 -5 -3 -5 8 -13 11 -17 7 -4 -3 -2 -12 4 -19 7 -10 5 -19 -9 -37 -14 -17 -19 -19 -19 -7 0 9 5 16 10 16 6 0 10 7 10 15 0 8 -3 15 -8 15 -14 0 -33 -41 -27 -60 3 -11 -1 -32 -9 -47 -14 -26 -15 -27 -16 -5 0 12 5 22 10 22 6 0 10 7 10 15 0 8 -4 15 -10 15 -5 0 -10 -6 -10 -14 0 -8 -3 -16 -7 -18 -5 -1 -19 -24 -32 -51 -19 -37 -22 -52 -14 -70 6 -12 7 -31 2 -42 -6 -16 -8 -14 -8 13 -1 20 -5 31 -11 27 -6 -4 -9 -33 -7 -68 3 -34 2 -45 0 -24 -5 42 -23 41 -23 -2 0 -15 -5 -32 -10 -37 -7 -7 -9 -746 -8 -2207 2 -1208 0 -2197 -4 -2197 -5 0 -8 -4 -8 -10 0 -5 7 -10 15 -10 13 0 15 252 15 2212 0 1216 2 2209 5 2206 3 -3 5 -991 5 -2197 l0 -2191 307 2 308 3 5 1570 5 1570 3 -1587 c1 -1051 5 -1588 12 -1588 7 0 10 537 10 1590 l0 1590 805 0 c562 0 805 3 805 11 0 5 -8 9 -17 8 -10 -1 -371 -1 -803 0 -511 1 -780 5 -770 11 9 6 304 10 783 10 l767 0 0 310 0 310 -767 0 c-479 0 -774 4 -783 10 -10 6 259 10 770 11 432 1 793 1 803 0 9 -1 17 3 17 8 0 8 -243 11 -805 11 l-805 0 0 189 c0 104 -2 204 -5 222 -4 27 -3 29 3 9 10 -32 26 -10 17 23 -5 17 -4 19 4 7 10 -13 12 -13 21 0 13 20 13 33 -2 24 -7 -4 -8 -3 -4 5 4 6 16 9 27 6 21 -7 27 11 7 18 -7 2 -1 3 14 1 15 -2 30 1 33 6 3 5 -5 10 -17 12 -13 2 313 2 725 0 508 -2 747 1 747 8 0 7 -236 11 -727 12 l-728 3 725 5 725 5 3 318 2 317 -712 2 -713 3 715 5 715 5 -720 1 c-396 0 -754 -2 -795 -3z m-313 -129 c-3 -3 -12 -4 -19 -1 -8 3 -5 6 6 6 11 1 17 -2 13 -5z m-60 -40 c-3 -3 -12 -4 -19 -1 -8 3 -5 6 6 6 11 1 17 -2 13 -5z m-32 -14 c3 -5 -1 -10 -10 -10 -9 0 -13 5 -10 10 3 6 8 10 10 10 2 0 7 -4 10 -10z m-228 -292 c-3 -7 -5 -2 -5 12 0 14 2 19 5 13 2 -7 2 -19 0 -25z m-20 -40 c-3 -7 -5 -2 -5 12 0 14 2 19 5 13 2 -7 2 -19 0 -25z m570 -586 c-1 -53 -3 -7 -3 103 0 110 2 154 3 97 2 -57 2 -147 0 -200z"/>
<path d="M1976 7641 c-4 -5 3 -7 14 -4 23 6 26 13 6 13 -8 0 -17 -4 -20 -9z"/>
<path d="M1649 7433 l-24 -28 28 24 c25 23 32 31 24 31 -2 0 -14 -12 -28 -27z"/>
<path d="M4020 4967 c0 -1863 3 -2416 12 -2425 9 -9 558 -12 2409 -12 1319 0 2400 3 2402 8 3 4 -1078 7 -2401 7 l-2407 0 -3 2412 -2 2413 367 3 368 2 -372 3 -373 2 0 -2413z"/>
<path d="M4765 5320 c0 -1125 1 -1585 2 -1023 2 563 2 1483 0 2045 -1 563 -2 103 -2 -1022z"/>
<path d="M1560 7335 c-7 -9 -11 -17 -9 -20 3 -2 10 5 17 15 14 24 10 26 -8 5z"/>
<path d="M4050 4960 c0 -1587 3 -2390 10 -2390 7 0 10 803 10 2390 0 1587 -3 2390 -10 2390 -7 0 -10 -803 -10 -2390z"/>
<path d="M4080 7340 c0 -6 110 -10 310 -10 200 0 310 4 310 10 0 6 -110 10 -310 10 -200 0 -310 -4 -310 -10z"/>
<path d="M4708 5308 l-3 -2043 -5 2025 -5 2025 -305 0 -305 0 0 -2355 0 -2355 2353 -3 2352 -2 0 310 0 310 -2022 3 -2023 2 2023 3 c1336 1 2022 5 2022 12 0 7 -687 11 -2027 12 l-2028 3 -3 2048 c-1 1353 -5 2047 -12 2047 -7 0 -11 -692 -12 -2042z"/>
<path d="M1475 7189 c-4 -6 -5 -12 -2 -15 2 -3 7 2 10 11 7 17 1 20 -8 4z"/>
<path d="M1455 7149 c-4 -6 -5 -12 -2 -15 2 -3 7 2 10 11 7 17 1 20 -8 4z"/>
<path d="M1412 7010 c0 -14 2 -19 5 -12 2 6 2 18 0 25 -3 6 -5 1 -5 -13z"/>
<path d="M3690 6980 c0 -5 7 -10 15 -10 8 0 15 5 15 10 0 6 -7 10 -15 10 -8 0 -15 -4 -15 -10z"/>
<path d="M2238 6933 c6 -2 18 -2 25 0 6 3 1 5 -13 5 -14 0 -19 -2 -12 -5z"/>
<path d="M1395 4740 c0 -1207 1 -1701 2 -1098 2 604 2 1592 0 2195 -1 604 -2 110 -2 -1097z"/>
<path d="M2144 6660 c0 -107 2 -151 3 -97 2 53 2 141 0 195 -1 53 -3 9 -3 -98z"/>
<path d="M3745 6100 c0 -201 1 -283 2 -182 2 100 2 264 0 365 -1 100 -2 18 -2 -183z"/>
<path d="M3690 6100 c0 -207 4 -320 10 -320 6 0 10 113 10 320 0 207 -4 320 -10 320 -6 0 -10 -113 -10 -320z"/>
<path d="M2145 4145 c0 -875 1 -1231 2 -792 2 439 2 1155 0 1590 -1 436 -2 77 -2 -798z"/>
<path d="M8810 2911 c0 -216 4 -342 10 -346 7 -4 10 112 10 339 0 224 -4 346 -10 346 -6 0 -10 -120 -10 -339z"/>
<path d="M1460 2580 c0 -6 110 -10 310 -10 200 0 310 4 310 10 0 6 -110 10 -310 10 -200 0 -310 -4 -310 -10z"/>
<path d="M4080 2580 c0 -7 792 -10 2355 -10 1563 0 2355 3 2355 10 0 7 -792 10 -2355 10 -1563 0 -2355 -3 -2355 -10z"/>
<path d="M1588 2533 c101 -2 263 -2 360 0 97 1 15 2 -183 2 -198 0 -278 -1 -177 -2z"/>
<path d="M0 502 l0 -502 502 0 c498 0 587 7 393 29 -125 14 -164 22 -171 32 -3 5 -14 9 -25 9 -10 0 -27 4 -37 9 -9 5 -48 23 -87 41 -187 88 -364 264 -451 448 -20 42 -40 85 -45 94 -5 10 -9 27 -9 37 0 11 -4 22 -9 25 -10 7 -18 46 -32 171 -22 194 -29 105 -29 -393z"/>
<path d="M10225 988 c-3 -7 -9 -51 -15 -98 -14 -121 -21 -159 -31 -166 -5 -3 -9 -14 -9 -25 0 -10 -4 -27 -9 -37 -5 -9 -25 -52 -45 -94 -87 -184 -264 -360 -451 -448 -38 -18 -78 -36 -87 -41 -10 -5 -27 -9 -37 -9 -11 0 -22 -4 -25 -9 -7 -10 -46 -18 -171 -32 -194 -22 -105 -29 393 -29 l502 0 0 500 c0 275 -2 500 -5 500 -3 0 -8 -6 -10 -12z"/>
</g>
</g>
  <g id="id3:id3" transform="matrix(1.25,0,0,1.25,0.0,0.0)"><g transform="translate(0.000000,409.600000) scale(0.040000,-0.040000)" fill="#fcfcfc" stroke="none">
<path d="M0 9738 c0 -498 7 -587 29 -393 14 125 22 164 32 171 5 3 9 14 9 25 0 10 4 27 9 37 5 9 25 52 45 94 87 184 260 357 443 443 43 21 86 41 95 46 10 5 27 9 37 9 11 0 22 4 25 9 7 10 46 18 171 32 194 22 105 29 -393 29 l-502 0 0 -502z"/>
<path d="M9246 10231 c5 -5 50 -14 99 -20 125 -14 164 -22 171 -32 3 -5 14 -9 25 -9 10 0 27 -4 37 -9 9 -5 52 -25 95 -46 183 -86 356 -259 443 -443 20 -42 40 -85 45 -94 5 -10 9 -27 9 -37 0 -11 4 -22 9 -25 10 -7 18 -46 32 -171 22 -194 29 -105 29 393 l0 502 -502 0 c-310 0 -498 -4 -492 -9z"/>
<path d="M2178 7683 c18 -2 45 -2 60 0 15 2 0 4 -33 4 -33 0 -45 -2 -27 -4z"/>
<path d="M3728 7683 c10 -8 12 -88 10 -376 -2 -201 0 -363 5 -358 4 4 6 171 5 371 -3 313 -5 364 -18 367 -11 4 -12 2 -2 -4z"/>
<path d="M2048 7663 c6 -2 18 -2 25 0 6 3 1 5 -13 5 -14 0 -19 -2 -12 -5z"/>
<path d="M2975 7660 l710 -5 -715 -5 -715 -5 713 -3 712 -2 -2 -317 -3 -318 -725 -5 -725 -5 727 -3 c570 -1 727 -5 731 -14 4 -10 6 -10 6 0 1 6 8 12 16 12 13 0 15 43 15 330 0 182 -3 330 -7 330 -5 0 -7 -146 -5 -325 2 -217 -1 -325 -8 -325 -7 0 -10 113 -10 335 l0 335 -712 -2 -713 -3 710 -5z"/>
<path d="M2208 7653 c6 -2 18 -2 25 0 6 3 1 5 -13 5 -14 0 -19 -2 -12 -5z"/>
<path d="M1976 7641 c-4 -5 3 -7 14 -4 23 6 26 13 6 13 -8 0 -17 -4 -20 -9z"/>
<path d="M2072 7641 c-25 -16 39 -27 113 -21 l70 7 -88 1 c-56 1 -86 6 -82 12 7 12 4 12 -13 1z"/>
<path d="M2000 7608 c0 -5 18 -8 40 -8 22 0 40 2 40 4 0 2 -18 6 -40 8 -22 2 -40 0 -40 -4z"/>
<path d="M1941 7596 c-9 -11 -6 -15 13 -18 14 -3 31 -1 38 3 9 6 4 9 -15 9 -16 0 -26 4 -22 10 9 15 -1 12 -14 -4z"/>
<path d="M1894 7569 c-3 -5 9 -9 25 -9 17 0 31 2 31 4 0 8 -51 13 -56 5z"/>
<path d="M1854 7549 c-3 -5 6 -9 20 -9 31 0 34 6 6 13 -11 3 -23 1 -26 -4z"/>
<path d="M1797 7523 c-14 -13 -7 -23 16 -22 17 1 18 2 4 6 -9 2 -15 9 -12 14 7 10 1 12 -8 2z"/>
<path d="M1838 7523 c7 -3 16 -2 19 1 4 3 -2 6 -13 5 -11 0 -14 -3 -6 -6z"/>
<path d="M1730 7475 c-7 -8 -9 -15 -5 -15 4 0 -7 -13 -24 -29 -17 -16 -31 -34 -31 -41 0 -6 17 6 38 28 20 21 43 41 51 43 11 4 10 7 -2 17 -11 10 -17 9 -27 -3z"/>
<path d="M1778 7483 c7 -3 16 -2 19 1 4 3 -2 6 -13 5 -11 0 -14 -3 -6 -6z"/>
<path d="M1649 7433 l-24 -28 28 24 c25 23 32 31 24 31 -2 0 -14 -12 -28 -27z"/>
<path d="M4020 4967 c0 -1863 3 -2416 12 -2425 9 -9 558 -12 2409 -12 1319 0 2400 3 2402 8 3 4 -1078 7 -2401 7 l-2407 0 -3 2412 -2 2413 367 3 368 2 -372 3 -373 2 0 -2413z"/>
<path d="M1626 7357 c3 -10 9 -15 12 -12 3 3 0 11 -7 18 -10 9 -11 8 -5 -6z"/>
<path d="M4765 5320 c0 -1125 1 -1585 2 -1023 2 563 2 1483 0 2045 -1 563 -2 103 -2 -1022z"/>
<path d="M1560 7335 c-7 -9 -11 -17 -9 -20 3 -2 10 5 17 15 14 24 10 26 -8 5z"/>
<path d="M1606 7335 c4 -10 1 -20 -6 -25 -7 -4 -11 -12 -9 -18 2 -6 12 0 21 13 15 20 16 24 2 35 -12 11 -13 10 -8 -5z"/>
<path d="M4071 4966 c-1 -1896 -4 -2392 -14 -2398 -9 -6 -9 -8 1 -8 7 0 15 7 18 15 5 13 277 15 2360 15 1375 0 2354 -4 2354 -9 0 -5 7 -12 16 -15 8 -3 12 -2 9 4 -3 5 -6 160 -6 345 0 210 -3 335 -9 335 -6 0 -10 -4 -10 -10 0 -7 -686 -11 -2022 -13 l-2023 -2 2023 -3 2022 -2 0 -310 0 -310 -2352 2 -2353 3 0 2355 0 2355 305 0 305 0 5 -2025 5 -2025 2 2045 c1 1125 -1 2039 -4 2033 -4 -10 -76 -13 -313 -13 -237 0 -309 3 -313 13 -3 6 -6 -1063 -6 -2377z"/>
<path d="M1567 7270 c5 -18 3 -22 -9 -18 -12 5 -14 0 -10 -20 l5 -26 15 32 c12 24 13 35 4 44 -8 8 -9 5 -5 -12z"/>
<path d="M1532 7190 c0 -14 2 -19 5 -12 2 6 2 18 0 25 -3 6 -5 1 -5 -13z"/>
<path d="M1475 7189 c-4 -6 -5 -12 -2 -15 2 -3 7 2 10 11 7 17 1 20 -8 4z"/>
<path d="M1512 7150 c0 -14 2 -19 5 -12 2 6 2 18 0 25 -3 6 -5 1 -5 -13z"/>
<path d="M1455 7149 c-4 -6 -5 -12 -2 -15 2 -3 7 2 10 11 7 17 1 20 -8 4z"/>
<path d="M1488 7103 c4 -30 6 -34 12 -18 6 16 -3 55 -13 55 -2 0 -1 -17 1 -37z"/>
<path d="M1455 7069 c-5 -8 -4 -10 3 -5 8 5 13 -6 14 -36 l1 -43 4 39 c5 41 -9 67 -22 45z"/>
<path d="M1412 7010 c0 -14 2 -19 5 -12 2 6 2 18 0 25 -3 6 -5 1 -5 -13z"/>
<path d="M1451 4779 c0 -1218 3 -2208 6 -2201 7 18 619 18 626 0 3 -7 5 702 4 1577 l-2 1590 -5 -1570 -5 -1570 -308 -3 -307 -2 0 2191 c0 1206 -2 2194 -5 2197 -3 3 -5 -991 -4 -2209z"/>
<path d="M2208 6973 c13 -3 19 -9 16 -15 -4 -7 -2 -8 5 -4 17 11 3 26 -22 25 -22 -2 -22 -2 1 -6z"/>
<path d="M2160 6956 c0 -2 9 -6 20 -9 11 -3 20 -1 20 4 0 5 -9 9 -20 9 -11 0 -20 -2 -20 -4z"/>
<path d="M2146 6932 c-3 -5 1 -9 9 -9 8 0 15 4 15 9 0 4 -4 8 -9 8 -6 0 -12 -4 -15 -8z"/>
<path d="M2238 6933 c6 -2 18 -2 25 0 6 3 1 5 -13 5 -14 0 -19 -2 -12 -5z"/>
<path d="M1395 4740 c0 -1207 1 -1701 2 -1098 2 604 2 1592 0 2195 -1 604 -2 110 -2 -1097z"/>
<path d="M2120 6901 c0 -6 4 -13 10 -16 6 -3 7 1 4 9 -7 18 -14 21 -14 7z"/>
<path d="M2101 6873 c-1 -25 14 -39 25 -22 4 7 3 9 -4 5 -6 -3 -12 3 -15 16 -4 23 -4 23 -6 1z"/>
<path d="M1422 4728 c-1 -1176 1 -2138 6 -2138 6 0 6 1453 -1 3505 -1 424 -3 -192 -5 -1367z"/>
<path d="M2084 6655 c0 -110 2 -156 3 -103 2 53 2 143 0 200 -1 57 -3 13 -3 -97z"/>
<path d="M2144 6660 c0 -107 2 -151 3 -97 2 53 2 141 0 195 -1 53 -3 9 -3 -98z"/>
<path d="M3745 6100 c0 -201 1 -283 2 -182 2 100 2 264 0 365 -1 100 -2 18 -2 -183z"/>
<path d="M2900 6430 c-432 -3 -777 -8 -767 -12 10 -5 363 -8 783 -8 l764 0 0 -310 0 -310 -767 0 c-475 0 -774 -4 -783 -10 -14 -9 1529 -20 1573 -12 16 3 17 33 17 332 0 304 -1 328 -17 331 -10 2 -371 2 -803 -1z m810 -330 c0 -207 -4 -320 -10 -320 -6 0 -10 113 -10 320 0 207 4 320 10 320 6 0 10 -113 10 -320z"/>
<path d="M2145 4145 c0 -875 1 -1231 2 -792 2 439 2 1155 0 1590 -1 436 -2 77 -2 -798z"/>
<path d="M4730 3271 c0 -6 4 -13 10 -16 6 -3 7 1 4 9 -7 18 -14 21 -14 7z"/>
<path d="M1588 2533 c101 -2 263 -2 360 0 97 1 15 2 -183 2 -198 0 -278 -1 -177 -2z"/>
<path d="M0 502 l0 -502 502 0 c498 0 587 7 393 29 -125 14 -164 22 -171 32 -3 5 -14 9 -25 9 -10 0 -27 4 -37 9 -9 5 -48 23 -87 41 -187 88 -364 264 -451 448 -20 42 -40 85 -45 94 -5 10 -9 27 -9 37 0 11 -4 22 -9 25 -10 7 -18 46 -32 171 -22 194 -29 105 -29 -393z"/>
<path d="M10225 988 c-3 -7 -9 -51 -15 -98 -14 -121 -21 -159 -31 -166 -5 -3 -9 -14 -9 -25 0 -10 -4 -27 -9 -37 -5 -9 -25 -52 -45 -94 -87 -184 -264 -360 -451 -448 -38 -18 -78 -36 -87 -41 -10 -5 -27 -9 -37 -9 -11 0 -22 -4 -25 -9 -7 -10 -46 -18 -171 -32 -194 -22 -105 -29 393 -29 l502 0 0 500 c0 275 -2 500 -5 500 -3 0 -8 -6 -10 -12z"/>
</g>
</g>
  <g id="id4:id4" transform="matrix(1.25,0,0,1.25,0.0,0.0)"><g transform="translate(0.000000,409.600000) scale(0.040000,-0.040000)" fill="#efefef" stroke="none">
<path d="M0 9738 c0 -498 7 -587 29 -393 14 125 22 164 32 171 5 3 9 14 9 25 0 10 4 27 9 37 5 9 25 52 45 94 87 184 260 357 443 443 43 21 86 41 95 46 10 5 27 9 37 9 11 0 22 4 25 9 7 10 46 18 171 32 194 22 105 29 -393 29 l-502 0 0 -502z"/>
<path d="M9246 10231 c5 -5 50 -14 99 -20 125 -14 164 -22 171 -32 3 -5 14 -9 25 -9 10 0 27 -4 37 -9 9 -5 52 -25 95 -46 183 -86 356 -259 443 -443 20 -42 40 -85 45 -94 5 -10 9 -27 9 -37 0 -11 4 -22 9 -25 10 -7 18 -46 32 -171 22 -194 29 -105 29 393 l0 502 -502 0 c-310 0 -498 -4 -492 -9z"/>
<path d="M2178 7683 c18 -2 45 -2 60 0 15 2 0 4 -33 4 -33 0 -45 -2 -27 -4z"/>
<path d="M3728 7683 c10 -8 12 -88 10 -376 -2 -201 0 -363 5 -358 4 4 6 171 5 371 -3 313 -5 364 -18 367 -11 4 -12 2 -2 -4z"/>
<path d="M2048 7663 c6 -2 18 -2 25 0 6 3 1 5 -13 5 -14 0 -19 -2 -12 -5z"/>
<path d="M2163 7653 c9 -2 23 -2 30 0 6 3 -1 5 -18 5 -16 0 -22 -2 -12 -5z"/>
<path d="M1976 7641 c-4 -5 3 -7 14 -4 23 6 26 13 6 13 -8 0 -17 -4 -20 -9z"/>
<path d="M1990 7620 c-9 -6 -10 -10 -3 -10 6 0 15 5 18 10 8 12 4 12 -15 0z"/>
<path d="M1649 7433 l-24 -28 28 24 c25 23 32 31 24 31 -2 0 -14 -12 -28 -27z"/>
<path d="M4020 4967 c0 -1863 3 -2416 12 -2425 9 -9 558 -12 2409 -12 1319 0 2400 3 2402 8 3 4 -1078 7 -2401 7 l-2407 0 -3 2412 -2 2413 367 3 368 2 -372 3 -373 2 0 -2413z"/>
<path d="M4765 5320 c0 -1125 1 -1585 2 -1023 2 563 2 1483 0 2045 -1 563 -2 103 -2 -1022z"/>
<path d="M1560 7335 c-7 -9 -11 -17 -9 -20 3 -2 10 5 17 15 14 24 10 26 -8 5z"/>
<path d="M4735 5305 c0 -1116 1 -1572 2 -1012 2 560 2 1474 0 2030 -1 557 -2 99 -2 -1018z"/>
<path d="M1475 7189 c-4 -6 -5 -12 -2 -15 2 -3 7 2 10 11 7 17 1 20 -8 4z"/>
<path d="M1455 7149 c-4 -6 -5 -12 -2 -15 2 -3 7 2 10 11 7 17 1 20 -8 4z"/>
<path d="M1412 7010 c0 -14 2 -19 5 -12 2 6 2 18 0 25 -3 6 -5 1 -5 -13z"/>
<path d="M2248 6963 c7 -3 16 -2 19 1 4 3 -2 6 -13 5 -11 0 -14 -3 -6 -6z"/>
<path d="M2238 6933 c6 -2 18 -2 25 0 6 3 1 5 -13 5 -14 0 -19 -2 -12 -5z"/>
<path d="M1395 4740 c0 -1207 1 -1701 2 -1098 2 604 2 1592 0 2195 -1 604 -2 110 -2 -1097z"/>
<path d="M1423 6895 c0 -22 2 -30 4 -17 2 12 2 30 0 40 -3 9 -5 -1 -4 -23z"/>
<path d="M2159 6913 c-13 -16 -12 -17 4 -4 16 13 21 21 13 21 -2 0 -10 -8 -17 -17z"/>
<path d="M2144 6660 c0 -107 2 -151 3 -97 2 53 2 141 0 195 -1 53 -3 9 -3 -98z"/>
<path d="M2112 6653 c-1 -105 1 -194 6 -196 4 -3 6 54 4 126 -4 240 -8 265 -10 70z"/>
<path d="M3745 6100 c0 -201 1 -283 2 -182 2 100 2 264 0 365 -1 100 -2 18 -2 -183z"/>
<path d="M2117 5743 c-4 -3 -7 -719 -7 -1590 l0 -1583 -347 -3 -348 -2 350 0 350 0 5 1593 c3 875 5 1592 4 1592 0 0 -4 -3 -7 -7z"/>
<path d="M2145 4145 c0 -875 1 -1231 2 -792 2 439 2 1155 0 1590 -1 436 -2 77 -2 -798z"/>
<path d="M5257 2563 c651 -2 1715 -2 2365 0 651 1 119 2 -1182 2 -1301 0 -1833 -1 -1183 -2z"/>
<path d="M1588 2533 c101 -2 263 -2 360 0 97 1 15 2 -183 2 -198 0 -278 -1 -177 -2z"/>
<path d="M0 502 l0 -502 502 0 c498 0 587 7 393 29 -125 14 -164 22 -171 32 -3 5 -14 9 -25 9 -10 0 -27 4 -37 9 -9 5 -48 23 -87 41 -187 88 -364 264 -451 448 -20 42 -40 85 -45 94 -5 10 -9 27 -9 37 0 11 -4 22 -9 25 -10 7 -18 46 -32 171 -22 194 -29 105 -29 -393z"/>
<path d="M10225 988 c-3 -7 -9 -51 -15 -98 -14 -121 -21 -159 -31 -166 -5 -3 -9 -14 -9 -25 0 -10 -4 -27 -9 -37 -5 -9 -25 -52 -45 -94 -87 -184 -264 -360 -451 -448 -38 -18 -78 -36 -87 -41 -10 -5 -27 -9 -37 -9 -11 0 -22 -4 -25 -9 -7 -10 -46 -18 -171 -32 -194 -22 -105 -29 393 -29 l502 0 0 500 c0 275 -2 500 -5 500 -3 0 -8 -6 -10 -12z"/>
</g>
</g>
  <g id="id5:id5" transform="matrix(1.25,0,0,1.25,0.0,0.0)"><g transform="translate(0.000000,409.600000) scale(0.040000,-0.040000)" fill="#e0e0e0" stroke="none">
<path d="M0 9738 c0 -498 7 -587 29 -393 14 125 22 164 32 171 5 3 9 14 9 25 0 10 4 27 9 37 5 9 25 52 45 94 87 184 260 357 443 443 43 21 86 41 95 46 10 5 27 9 37 9 11 0 22 4 25 9 7 10 46 18 171 32 194 22 105 29 -393 29 l-502 0 0 -502z"/>
<path d="M9246 10231 c5 -5 50 -14 99 -20 125 -14 164 -22 171 -32 3 -5 14 -9 25 -9 10 0 27 -4 37 -9 9 -5 52 -25 95 -46 183 -86 356 -259 443 -443 20 -42 40 -85 45 -94 5 -10 9 -27 9 -37 0 -11 4 -22 9 -25 10 -7 18 -46 32 -171 22 -194 29 -105 29 393 l0 502 -502 0 c-310 0 -498 -4 -492 -9z"/>
<path d="M2178 7683 c18 -2 45 -2 60 0 15 2 0 4 -33 4 -33 0 -45 -2 -27 -4z"/>
<path d="M3728 7683 c10 -8 12 -88 10 -376 -2 -201 0 -363 5 -358 4 4 6 171 5 371 -3 313 -5 364 -18 367 -11 4 -12 2 -2 -4z"/>
<path d="M2048 7663 c6 -2 18 -2 25 0 6 3 1 5 -13 5 -14 0 -19 -2 -12 -5z"/>
<path d="M2228 7663 c7 -3 16 -2 19 1 4 3 -2 6 -13 5 -11 0 -14 -3 -6 -6z"/>
<path d="M3725 7325 c0 -192 1 -270 2 -172 2 98 2 256 0 350 -1 95 -3 15 -2 -178z"/>
<path d="M2128 7653 c7 -3 16 -2 19 1 4 3 -2 6 -13 5 -11 0 -14 -3 -6 -6z"/>
<path d="M1976 7641 c-4 -5 3 -7 14 -4 23 6 26 13 6 13 -8 0 -17 -4 -20 -9z"/>
<path d="M1709 7463 c-13 -16 -12 -17 4 -4 16 13 21 21 13 21 -2 0 -10 -8 -17 -17z"/>
<path d="M1649 7433 l-24 -28 28 24 c25 23 32 31 24 31 -2 0 -14 -12 -28 -27z"/>
<path d="M4020 4967 c0 -1863 3 -2416 12 -2425 9 -9 558 -12 2409 -12 1319 0 2400 3 2402 8 3 4 -1078 7 -2401 7 l-2407 0 -3 2412 -2 2413 367 3 368 2 -372 3 -373 2 0 -2413z"/>
<path d="M4222 7353 c92 -2 245 -2 340 0 95 1 20 3 -167 3 -187 0 -265 -2 -173 -3z"/>
<path d="M4765 5320 c0 -1125 1 -1585 2 -1023 2 563 2 1483 0 2045 -1 563 -2 103 -2 -1022z"/>
<path d="M1560 7335 c-7 -9 -11 -17 -9 -20 3 -2 10 5 17 15 14 24 10 26 -8 5z"/>
<path d="M4045 4960 c0 -1317 1 -1856 2 -1198 2 659 2 1737 0 2395 -1 659 -2 120 -2 -1197z"/>
<path d="M1475 7189 c-4 -6 -5 -12 -2 -15 2 -3 7 2 10 11 7 17 1 20 -8 4z"/>
<path d="M1455 7149 c-4 -6 -5 -12 -2 -15 2 -3 7 2 10 11 7 17 1 20 -8 4z"/>
<path d="M1412 7010 c0 -14 2 -19 5 -12 2 6 2 18 0 25 -3 6 -5 1 -5 -13z"/>
<path d="M2633 6963 c203 -2 531 -2 730 0 199 1 34 2 -368 2 -401 0 -564 -1 -362 -2z"/>
<path d="M1421 6944 c0 -11 3 -14 6 -6 3 7 2 16 -1 19 -3 4 -6 -2 -5 -13z"/>
<path d="M2238 6933 c6 -2 18 -2 25 0 6 3 1 5 -13 5 -14 0 -19 -2 -12 -5z"/>
<path d="M1395 4740 c0 -1207 1 -1701 2 -1098 2 604 2 1592 0 2195 -1 604 -2 110 -2 -1097z"/>
<path d="M2144 6660 c0 -107 2 -151 3 -97 2 53 2 141 0 195 -1 53 -3 9 -3 -98z"/>
<path d="M1415 4700 c0 -1174 1 -1655 2 -1067 2 587 2 1547 0 2135 -1 587 -2 106 -2 -1068z"/>
<path d="M3745 6100 c0 -201 1 -283 2 -182 2 100 2 264 0 365 -1 100 -2 18 -2 -183z"/>
<path d="M3724 6100 c0 -184 2 -260 3 -167 2 92 2 242 0 335 -1 92 -3 16 -3 -168z"/>
<path d="M2145 4145 c0 -875 1 -1231 2 -792 2 439 2 1155 0 1590 -1 436 -2 77 -2 -798z"/>
<path d="M5773 3253 c560 -2 1474 -2 2030 0 557 1 99 2 -1018 2 -1117 0 -1572 -1 -1012 -2z"/>
<path d="M1588 2533 c101 -2 263 -2 360 0 97 1 15 2 -183 2 -198 0 -278 -1 -177 -2z"/>
<path d="M0 502 l0 -502 502 0 c498 0 587 7 393 29 -125 14 -164 22 -171 32 -3 5 -14 9 -25 9 -10 0 -27 4 -37 9 -9 5 -48 23 -87 41 -187 88 -364 264 -451 448 -20 42 -40 85 -45 94 -5 10 -9 27 -9 37 0 11 -4 22 -9 25 -10 7 -18 46 -32 171 -22 194 -29 105 -29 -393z"/>
<path d="M10225 988 c-3 -7 -9 -51 -15 -98 -14 -121 -21 -159 -31 -166 -5 -3 -9 -14 -9 -25 0 -10 -4 -27 -9 -37 -5 -9 -25 -52 -45 -94 -87 -184 -264 -360 -451 -448 -38 -18 -78 -36 -87 -41 -10 -5 -27 -9 -37 -9 -11 0 -22 -4 -25 -9 -7 -10 -46 -18 -171 -32 -194 -22 -105 -29 393 -29 l502 0 0 500 c0 275 -2 500 -5 500 -3 0 -8 -6 -10 -12z"/>
</g>
</g>
  <g id="id6:id6" transform="matrix(1.25,0,0,1.25,0.0,0.0)"><g transform="translate(0.000000,409.600000) scale(0.040000,-0.040000)" fill="#cbcbcb" stroke="none">
<path d="M0 9738 c0 -498 7 -587 29 -393 14 125 22 164 32 171 5 3 9 14 9 25 0 10 4 27 9 37 5 9 25 52 45 94 87 184 260 357 443 443 43 21 86 41 95 46 10 5 27 9 37 9 11 0 22 4 25 9 7 10 46 18 171 32 194 22 105 29 -393 29 l-502 0 0 -502z"/>
<path d="M9246 10231 c5 -5 50 -14 99 -20 125 -14 164 -22 171 -32 3 -5 14 -9 25 -9 10 0 27 -4 37 -9 9 -5 52 -25 95 -46 183 -86 356 -259 443 -443 20 -42 40 -85 45 -94 5 -10 9 -27 9 -37 0 -11 4 -22 9 -25 10 -7 18 -46 32 -171 22 -194 29 -105 29 393 l0 502 -502 0 c-310 0 -498 -4 -492 -9z"/>
<path d="M2178 7683 c18 -2 45 -2 60 0 15 2 0 4 -33 4 -33 0 -45 -2 -27 -4z"/>
<path d="M3728 7683 c10 -8 12 -88 10 -376 -2 -201 0 -363 5 -358 4 4 6 171 5 371 -3 313 -5 364 -18 367 -11 4 -12 2 -2 -4z"/>
<path d="M2048 7663 c6 -2 18 -2 25 0 6 3 1 5 -13 5 -14 0 -19 -2 -12 -5z"/>
<path d="M2198 7663 c7 -3 16 -2 19 1 4 3 -2 6 -13 5 -11 0 -14 -3 -6 -6z"/>
<path d="M1976 7641 c-4 -5 3 -7 14 -4 23 6 26 13 6 13 -8 0 -17 -4 -20 -9z"/>
<path d="M1739 7518 c-5 -18 -6 -38 -1 -34 7 8 12 36 6 36 -2 0 -4 -1 -5 -2z"/>
<path d="M1651 7436 c-12 -13 -18 -27 -13 -30 11 -7 35 19 38 40 3 19 1 18 -25 -10z m19 0 c0 -2 -8 -10 -17 -17 -16 -13 -17 -12 -4 4 13 16 21 21 21 13z"/>
<path d="M4020 4967 c0 -1863 3 -2416 12 -2425 9 -9 558 -12 2409 -12 1319 0 2400 3 2402 8 3 4 -1078 7 -2401 7 l-2407 0 -3 2412 -2 2413 367 3 368 2 -372 3 -373 2 0 -2413z"/>
<path d="M1600 7355 c-7 -8 -16 -13 -20 -10 -14 9 -34 -25 -23 -36 8 -8 11 -6 10 7 -1 11 3 18 9 17 7 -1 20 7 29 17 10 11 16 20 13 20 -3 0 -11 -7 -18 -15z"/>
<path d="M4738 5317 c1 -1122 5 -2044 10 -2049 4 -4 6 912 4 2035 -1 1122 -5 2044 -10 2049 -4 4 -6 -912 -4 -2035z"/>
<path d="M4765 5320 c0 -1125 1 -1585 2 -1023 2 563 2 1483 0 2045 -1 563 -2 103 -2 -1022z"/>
<path d="M1530 7291 c0 -6 4 -13 10 -16 6 -3 7 1 4 9 -7 18 -14 21 -14 7z"/>
<path d="M1490 7221 c0 -6 4 -13 10 -16 6 -3 7 1 4 9 -7 18 -14 21 -14 7z"/>
<path d="M1474 7189 c-3 -6 -2 -15 3 -20 5 -5 9 -1 9 11 0 23 -2 24 -12 9z"/>
<path d="M1455 7149 c-4 -6 -5 -12 -2 -15 2 -3 7 2 10 11 7 17 1 20 -8 4z"/>
<path d="M1412 7010 c0 -14 2 -19 5 -12 2 6 2 18 0 25 -3 6 -5 1 -5 -13z"/>
<path d="M2238 6933 c6 -2 18 -2 25 0 6 3 1 5 -13 5 -14 0 -19 -2 -12 -5z"/>
<path d="M1395 4740 c0 -1207 1 -1701 2 -1098 2 604 2 1592 0 2195 -1 604 -2 110 -2 -1097z"/>
<path d="M2183 6915 c0 -8 4 -12 9 -9 5 3 6 10 3 15 -9 13 -12 11 -12 -6z"/>
<path d="M2146 6892 c-3 -5 1 -9 9 -9 8 0 12 4 9 9 -3 4 -7 8 -9 8 -2 0 -6 -4 -9 -8z"/>
<path d="M1412 6855 c0 -16 2 -22 5 -12 2 9 2 23 0 30 -3 6 -5 -1 -5 -18z"/>
<path d="M2144 6660 c0 -107 2 -151 3 -97 2 53 2 141 0 195 -1 53 -3 9 -3 -98z"/>
<path d="M2538 6453 c222 -2 582 -2 800 0 218 1 37 2 -403 2 -440 0 -619 -1 -397 -2z"/>
<path d="M3745 6100 c0 -201 1 -283 2 -182 2 100 2 264 0 365 -1 100 -2 18 -2 -183z"/>
<path d="M2538 5743 c222 -2 582 -2 800 0 218 1 37 2 -403 2 -440 0 -619 -1 -397 -2z"/>
<path d="M2145 4145 c0 -875 1 -1231 2 -792 2 439 2 1155 0 1590 -1 436 -2 77 -2 -798z"/>
<path d="M8835 2910 c0 -195 1 -275 2 -178 2 98 2 258 0 355 -1 98 -2 18 -2 -177z"/>
<path d="M1588 2533 c101 -2 263 -2 360 0 97 1 15 2 -183 2 -198 0 -278 -1 -177 -2z"/>
<path d="M0 502 l0 -502 502 0 c498 0 587 7 393 29 -125 14 -164 22 -171 32 -3 5 -14 9 -25 9 -10 0 -27 4 -37 9 -9 5 -48 23 -87 41 -187 88 -364 264 -451 448 -20 42 -40 85 -45 94 -5 10 -9 27 -9 37 0 11 -4 22 -9 25 -10 7 -18 46 -32 171 -22 194 -29 105 -29 -393z"/>
<path d="M10225 988 c-3 -7 -9 -51 -15 -98 -14 -121 -21 -159 -31 -166 -5 -3 -9 -14 -9 -25 0 -10 -4 -27 -9 -37 -5 -9 -25 -52 -45 -94 -87 -184 -264 -360 -451 -448 -38 -18 -78 -36 -87 -41 -10 -5 -27 -9 -37 -9 -11 0 -22 -4 -25 -9 -7 -10 -46 -18 -171 -32 -194 -22 -105 -29 393 -29 l502 0 0 500 c0 275 -2 500 -5 500 -3 0 -8 -6 -10 -12z"/>
</g>
</g>
  <g id="id7:id7" transform="matrix(1.25,0,0,1.25,0.0,0.0)"><g transform="translate(0.000000,409.600000) scale(0.040000,-0.040000)" fill="#a9a9a9" stroke="none">
<path d="M0 9738 c0 -498 7 -587 29 -393 14 125 22 164 32 171 5 3 9 14 9 25 0 10 4 27 9 37 5 9 25 52 45 94 87 184 260 357 443 443 43 21 86 41 95 46 10 5 27 9 37 9 11 0 22 4 25 9 7 10 46 18 171 32 194 22 105 29 -393 29 l-502 0 0 -502z"/>
<path d="M9246 10231 c5 -5 50 -14 99 -20 125 -14 164 -22 171 -32 3 -5 14 -9 25 -9 10 0 27 -4 37 -9 9 -5 52 -25 95 -46 183 -86 356 -259 443 -443 20 -42 40 -85 45 -94 5 -10 9 -27 9 -37 0 -11 4 -22 9 -25 10 -7 18 -46 32 -171 22 -194 29 -105 29 393 l0 502 -502 0 c-310 0 -498 -4 -492 -9z"/>
<path d="M2220 7677 c41 -4 400 -6 798 -5 l722 3 -2 -367 c-2 -202 0 -364 5 -359 4 4 6 170 5 369 l-3 361 -800 3 c-440 2 -766 0 -725 -5z"/>
<path d="M2041 7666 c2 -2 18 -6 34 -10 22 -5 26 -4 15 4 -14 9 -59 15 -49 6z"/>
<path d="M2168 7663 c7 -3 16 -2 19 1 4 3 -2 6 -13 5 -11 0 -14 -3 -6 -6z"/>
<path d="M1977 7643 c-3 -5 6 -9 19 -9 13 -1 21 2 18 7 -6 11 -31 12 -37 2z"/>
<path d="M1930 7626 c0 -2 7 -7 16 -10 8 -3 12 -2 9 4 -6 10 -25 14 -25 6z"/>
<path d="M1775 7541 c-3 -5 -2 -12 3 -15 5 -3 9 1 9 9 0 17 -3 19 -12 6z"/>
<path d="M1736 7512 c-3 -5 1 -9 9 -9 8 0 12 4 9 9 -3 4 -7 8 -9 8 -2 0 -6 -4 -9 -8z"/>
<path d="M1692 7468 c2 -7 -2 -12 -8 -11 -6 1 -22 -10 -35 -25 l-24 -27 26 23 c14 12 28 20 31 17 3 -3 11 1 17 9 8 10 9 16 1 21 -6 4 -9 1 -8 -7z"/>
<path d="M1616 7388 c3 -5 10 -6 15 -3 13 9 11 12 -6 12 -8 0 -12 -4 -9 -9z"/>
<path d="M4020 4967 c0 -1863 3 -2416 12 -2425 9 -9 558 -12 2409 -12 1319 0 2400 3 2402 8 3 4 -1078 7 -2401 7 l-2407 0 -3 2412 -2 2413 367 3 368 2 -372 3 -373 2 0 -2413z"/>
<path d="M4765 5320 c0 -1125 1 -1585 2 -1023 2 563 2 1483 0 2045 -1 563 -2 103 -2 -1022z"/>
<path d="M1560 7335 c-7 -9 -11 -17 -9 -20 3 -2 10 5 17 15 14 24 10 26 -8 5z"/>
<path d="M1490 7218 c0 -4 4 -8 9 -8 6 0 12 4 15 8 3 5 -1 9 -9 9 -8 0 -15 -4 -15 -9z"/>
<path d="M1475 7189 c-4 -6 -4 -13 -1 -16 3 -4 6 -1 6 6 0 7 5 9 12 5 7 -4 8 -3 4 4 -9 15 -13 15 -21 1z"/>
<path d="M1454 7149 c-3 -6 -1 -16 5 -22 9 -9 10 -7 5 7 -6 15 -4 17 6 11 9 -5 11 -4 6 3 -9 15 -13 15 -22 1z"/>
<path d="M1430 7081 c0 -6 4 -13 10 -16 6 -3 7 1 4 9 -7 18 -14 21 -14 7z"/>
<path d="M1410 7011 c0 -11 4 -22 9 -25 4 -3 6 6 3 19 -5 30 -12 33 -12 6z"/>
<path d="M2228 6938 c6 -6 18 -8 28 -6 14 3 12 5 -9 10 -19 3 -25 2 -19 -4z"/>
<path d="M1395 4740 c0 -1207 1 -1701 2 -1098 2 604 2 1592 0 2195 -1 604 -2 110 -2 -1097z"/>
<path d="M1412 6905 c0 -16 2 -22 5 -12 2 9 2 23 0 30 -3 6 -5 -1 -5 -18z"/>
<path d="M2165 6909 c-3 -4 2 -6 10 -5 21 3 28 13 10 13 -9 0 -18 -4 -20 -8z"/>
<path d="M2140 6662 l5 -197 3 189 c1 104 -1 193 -5 197 -5 5 -6 -81 -3 -189z"/>
<path d="M2124 6650 c0 -102 2 -143 3 -92 2 50 2 134 0 185 -1 50 -3 9 -3 -93z"/>
<path d="M3740 6455 c-3 -109 1 -709 5 -713 3 -3 5 157 5 356 0 199 -2 362 -5 362 -3 0 -5 -2 -5 -5z"/>
<path d="M2125 4150 c0 -872 1 -1228 2 -792 2 435 2 1149 0 1585 -1 435 -2 79 -2 -793z"/>
<path d="M2145 4145 c0 -875 1 -1231 2 -792 2 439 2 1155 0 1590 -1 436 -2 77 -2 -798z"/>
<path d="M1587 2553 c94 -2 252 -2 350 0 98 1 21 2 -172 2 -192 1 -273 -1 -178 -2z"/>
<path d="M5243 2553 c658 -2 1736 -2 2395 0 658 1 119 2 -1198 2 -1317 0 -1856 -1 -1197 -2z"/>
<path d="M1588 2533 c101 -2 263 -2 360 0 97 1 15 2 -183 2 -198 0 -278 -1 -177 -2z"/>
<path d="M0 502 l0 -502 502 0 c498 0 587 7 393 29 -125 14 -164 22 -171 32 -3 5 -14 9 -25 9 -10 0 -27 4 -37 9 -9 5 -48 23 -87 41 -187 88 -364 264 -451 448 -20 42 -40 85 -45 94 -5 10 -9 27 -9 37 0 11 -4 22 -9 25 -10 7 -18 46 -32 171 -22 194 -29 105 -29 -393z"/>
<path d="M10225 988 c-3 -7 -9 -51 -15 -98 -14 -121 -21 -159 -31 -166 -5 -3 -9 -14 -9 -25 0 -10 -4 -27 -9 -37 -5 -9 -25 -52 -45 -94 -87 -184 -264 -360 -451 -448 -38 -18 -78 -36 -87 -41 -10 -5 -27 -9 -37 -9 -11 0 -22 -4 -25 -9 -7 -10 -46 -18 -171 -32 -194 -22 -105 -29 393 -29 l502 0 0 500 c0 275 -2 500 -5 500 -3 0 -8 -6 -10 -12z"/>
</g>
</g>
  <g id="id8:id8" transform="matrix(1.25,0,0,1.25,0.0,0.0)"><g transform="translate(0.000000,409.600000) scale(0.040000,-0.040000)" fill="#8d8d8d" stroke="none">
<path d="M0 9738 c0 -498 7 -587 29 -393 14 125 22 164 32 171 5 3 9 14 9 25 0 10 4 27 9 37 5 9 25 52 45 94 87 184 260 357 443 443 43 21 86 41 95 46 10 5 27 9 37 9 11 0 22 4 25 9 7 10 46 18 171 32 194 22 105 29 -393 29 l-502 0 0 -502z"/>
<path d="M9246 10231 c5 -5 50 -14 99 -20 125 -14 164 -22 171 -32 3 -5 14 -9 25 -9 10 0 27 -4 37 -9 9 -5 52 -25 95 -46 183 -86 356 -259 443 -443 20 -42 40 -85 45 -94 5 -10 9 -27 9 -37 0 -11 4 -22 9 -25 10 -7 18 -46 32 -171 22 -194 29 -105 29 393 l0 502 -502 0 c-310 0 -498 -4 -492 -9z"/>
<path d="M2195 7679 c30 -5 54 -4 59 1 7 7 -12 10 -49 9 l-60 -1 50 -9z"/>
<path d="M3727 7684 c5 -2 7 -166 5 -364 l-2 -360 -737 0 c-405 0 -734 -2 -731 -5 2 -3 337 -5 744 -5 l739 -1 0 367 c0 290 -3 368 -13 370 -7 1 -9 1 -5 -2z"/>
<path d="M2130 7670 c8 -5 20 -10 25 -10 6 0 3 5 -5 10 -8 5 -19 10 -25 10 -5 0 -3 -5 5 -10z"/>
<path d="M2050 7660 c19 -13 30 -13 30 0 0 6 -10 10 -22 10 -19 0 -20 -2 -8 -10z"/>
<path d="M1975 7641 c-3 -5 0 -13 6 -17 7 -4 9 -3 5 4 -3 6 2 13 11 15 16 4 16 5 1 6 -9 0 -19 -3 -23 -8z"/>
<path d="M1935 7620 c3 -5 8 -10 11 -10 2 0 4 5 4 10 0 6 -5 10 -11 10 -5 0 -7 -4 -4 -10z"/>
<path d="M1776 7542 c-3 -5 1 -9 9 -9 8 0 12 4 9 9 -3 4 -7 8 -9 8 -2 0 -6 -4 -9 -8z"/>
<path d="M1725 7494 c-9 -15 -12 -23 -6 -20 11 7 35 46 28 46 -3 0 -12 -12 -22 -26z"/>
<path d="M1649 7433 l-24 -28 28 24 c25 23 32 31 24 31 -2 0 -14 -12 -28 -27z"/>
<path d="M1582 7352 c-31 -26 -43 -47 -21 -40 6 2 10 7 10 11 -1 4 11 19 26 32 38 33 26 31 -15 -3z"/>
<path d="M4020 4967 c0 -1863 3 -2416 12 -2425 15 -15 4803 -18 4813 -3 3 5 0 13 -6 17 -8 4 -9 3 -5 -4 5 -9 -582 -12 -2394 -12 -1812 0 -2399 3 -2394 12 4 7 3 8 -4 4 -9 -5 -12 584 -12 2403 l0 2411 368 3 367 2 -372 3 -373 2 0 -2413z"/>
<path d="M4760 5316 c-3 -1361 -2 -2050 5 -2052 6 -2 923 -3 2040 -2 l2030 3 -2035 3 -2035 2 3 1302 c1 717 1 1638 0 2048 -2 410 -5 -177 -8 -1304z"/>
<path d="M1530 7288 c0 -4 4 -8 9 -8 6 0 12 4 15 8 3 5 -1 9 -9 9 -8 0 -15 -4 -15 -9z"/>
<path d="M1520 7260 c-9 -6 -10 -10 -3 -10 6 0 15 5 18 10 8 12 4 12 -15 0z"/>
<path d="M1477 7193 c-10 -9 -9 -23 1 -23 5 0 9 7 9 15 0 17 -1 18 -10 8z"/>
<path d="M1457 7153 c-10 -9 -9 -23 1 -23 5 0 9 7 9 15 0 17 -1 18 -10 8z"/>
<path d="M1430 7080 c0 -5 5 -10 11 -10 5 0 7 5 4 10 -3 6 -8 10 -11 10 -2 0 -4 -4 -4 -10z"/>
<path d="M1410 7013 c0 -13 5 -23 10 -23 13 0 13 11 0 30 -8 12 -10 11 -10 -7z"/>
<path d="M1400 6951 c0 -6 4 -13 10 -16 6 -3 7 1 4 9 -7 18 -14 21 -14 7z"/>
<path d="M2230 6939 c0 -5 9 -9 20 -9 11 0 20 2 20 4 0 2 -9 6 -20 9 -11 3 -20 1 -20 -4z"/>
<path d="M2190 6920 c-6 -11 -8 -20 -6 -20 3 0 10 9 16 20 6 11 8 20 6 20 -3 0 -10 -9 -16 -20z"/>
<path d="M1390 4743 c0 -1745 3 -2190 13 -2190 9 0 11 441 7 2183 -3 1200 -8 2186 -12 2190 -5 4 -8 -978 -8 -2183z"/>
<path d="M2145 6880 c-3 -6 1 -7 9 -4 18 7 21 14 7 14 -6 0 -13 -4 -16 -10z"/>
<path d="M2135 6656 c0 -107 3 -192 8 -189 4 2 7 89 7 194 0 104 -3 189 -7 189 -5 0 -8 -87 -8 -194z"/>
<path d="M3736 6444 c-10 -27 -7 -678 4 -694 6 -10 10 110 10 348 0 199 -2 362 -4 362 -2 0 -7 -7 -10 -16z"/>
<path d="M2140 4147 l5 -1592 3 1584 c1 872 -1 1588 -5 1592 -5 5 -6 -708 -3 -1584z"/>
<path d="M1588 2533 c101 -2 263 -2 360 0 97 1 15 2 -183 2 -198 0 -278 -1 -177 -2z"/>
<path d="M0 502 l0 -502 502 0 c498 0 587 7 393 29 -125 14 -164 22 -171 32 -3 5 -14 9 -25 9 -10 0 -27 4 -37 9 -9 5 -48 23 -87 41 -187 88 -364 264 -451 448 -20 42 -40 85 -45 94 -5 10 -9 27 -9 37 0 11 -4 22 -9 25 -10 7 -18 46 -32 171 -22 194 -29 105 -29 -393z"/>
<path d="M10225 988 c-3 -7 -9 -51 -15 -98 -14 -121 -21 -159 -31 -166 -5 -3 -9 -14 -9 -25 0 -10 -4 -27 -9 -37 -5 -9 -25 -52 -45 -94 -87 -184 -264 -360 -451 -448 -38 -18 -78 -36 -87 -41 -10 -5 -27 -9 -37 -9 -11 0 -22 -4 -25 -9 -7 -10 -46 -18 -171 -32 -194 -22 -105 -29 393 -29 l502 0 0 500 c0 275 -2 500 -5 500 -3 0 -8 -6 -10 -12z"/>
</g>
</g>
  <g id="id9:id9" transform="matrix(1.25,0,0,1.25,0.0,0.0)"><g transform="translate(0.000000,409.600000) scale(0.040000,-0.040000)" fill="#000000" stroke="none">
<path d="M0 5120 l0 -5120 5120 0 5120 0 0 5120 0 5120 -5120 0 -5120 0 0 -5120z m3728 2562 c9 -7 12 -88 10 -373 l-3 -364 -755 -5 c-821 -5 -784 -3 -820 -63 -18 -29 -20 -51 -20 -219 l0 -188 800 0 800 0 0 -370 0 -370 -800 0 -800 0 -2 -1592 -3 -1593 -368 -3 -367 -2 2 2217 c3 2100 4 2221 21 2278 72 239 241 451 445 554 101 51 227 85 352 94 100 8 1496 6 1508 -1z m1032 -2357 l0 -2045 2043 -2 2042 -3 0 -365 0 -365 -2405 0 -2405 0 -3 2413 -2 2412 365 0 365 0 0 -2045z"/>
</g>
</g>
  <g id="id10:id10" transform="matrix(1.25,0,0,1.25,0.0,0.0)"><g transform="translate(0.000000,409.600000) scale(0.040000,-0.040000)" fill="#717171" stroke="none">
<path d="M0 9738 c0 -498 7 -587 29 -393 14 125 22 164 32 171 5 3 9 14 9 25 0 10 4 27 9 37 5 9 25 52 45 94 87 184 260 357 443 443 43 21 86 41 95 46 10 5 27 9 37 9 11 0 22 4 25 9 7 10 46 18 171 32 194 22 105 29 -393 29 l-502 0 0 -502z"/>
<path d="M9246 10231 c5 -5 50 -14 99 -20 125 -14 164 -22 171 -32 3 -5 14 -9 25 -9 10 0 27 -4 37 -9 9 -5 52 -25 95 -46 183 -86 356 -259 443 -443 20 -42 40 -85 45 -94 5 -10 9 -27 9 -37 0 -11 4 -22 9 -25 10 -7 18 -46 32 -171 22 -194 29 -105 29 393 l0 502 -502 0 c-310 0 -498 -4 -492 -9z"/>
<path d="M2172 7679 c17 -7 38 -7 60 0 30 8 28 9 -27 9 -50 0 -56 -1 -33 -9z"/>
<path d="M3728 7678 c10 -12 12 -96 10 -376 -2 -199 0 -358 5 -353 4 4 6 171 5 371 -3 312 -5 364 -18 368 -12 4 -13 3 -2 -10z"/>
<path d="M2125 7670 c3 -5 8 -10 11 -10 2 0 4 5 4 10 0 6 -5 10 -11 10 -5 0 -7 -4 -4 -10z"/>
<path d="M2045 7660 c3 -5 12 -7 20 -3 21 7 19 13 -6 13 -11 0 -18 -4 -14 -10z"/>
<path d="M1975 7639 c-4 -6 -4 -13 -1 -16 3 -4 6 -1 6 6 0 7 4 10 9 6 5 -3 12 -1 16 5 3 5 -1 10 -9 10 -8 0 -18 -5 -21 -11z"/>
<path d="M1650 7435 c-13 -14 -20 -25 -16 -25 4 0 18 11 32 25 14 14 21 25 16 25 -5 0 -19 -11 -32 -25z"/>
<path d="M4020 4967 c0 -1863 3 -2416 12 -2425 9 -9 558 -12 2409 -12 1319 0 2400 3 2402 8 3 4 -1077 7 -2399 7 l-2404 0 -3 2410 -2 2410 348 -3 c220 -2 354 1 365 7 12 7 -101 10 -355 11 l-373 0 0 -2413z"/>
<path d="M4750 5320 c0 -1353 3 -2040 10 -2040 7 0 10 687 10 2040 0 1353 -3 2040 -10 2040 -7 0 -10 -687 -10 -2040z"/>
<path d="M1560 7335 c-7 -9 -11 -17 -9 -20 3 -2 10 5 17 15 14 24 10 26 -8 5z"/>
<path d="M1500 7230 c-8 -5 -12 -12 -9 -15 4 -3 12 1 19 10 14 17 11 19 -10 5z"/>
<path d="M1475 7189 c-11 -16 -1 -19 13 -3 7 8 8 14 3 14 -5 0 -13 -5 -16 -11z"/>
<path d="M1455 7149 c-11 -16 -1 -19 13 -3 7 8 8 14 3 14 -5 0 -13 -5 -16 -11z"/>
<path d="M1430 7079 c0 -5 5 -7 10 -4 6 3 10 8 10 11 0 2 -4 4 -10 4 -5 0 -10 -5 -10 -11z"/>
<path d="M1410 7011 c0 -25 6 -27 13 -6 4 8 2 17 -3 20 -6 4 -10 -3 -10 -14z"/>
<path d="M1400 6950 c0 -5 5 -10 11 -10 5 0 7 5 4 10 -3 6 -8 10 -11 10 -2 0 -4 -4 -4 -10z"/>
<path d="M2235 6940 c-4 -6 3 -10 14 -10 25 0 27 6 6 13 -8 4 -17 2 -20 -3z"/>
<path d="M1393 4740 l2 -2195 5 2175 c3 1196 2 2184 -2 2195 -4 11 -6 -968 -5 -2175z"/>
<path d="M2138 6843 c-2 -5 -1 -91 2 -193 l6 -185 2 193 c2 173 0 208 -10 185z"/>
<path d="M3735 6100 c0 -198 3 -360 8 -360 4 0 7 162 7 360 0 198 -3 360 -7 360 -5 0 -8 -162 -8 -360z"/>
<path d="M2145 4145 c0 -875 1 -1231 2 -792 2 439 2 1155 0 1590 -1 436 -2 77 -2 -798z"/>
<path d="M1588 2533 c101 -2 263 -2 360 0 97 1 15 2 -183 2 -198 0 -278 -1 -177 -2z"/>
<path d="M0 502 l0 -502 502 0 c498 0 587 7 393 29 -125 14 -164 22 -171 32 -3 5 -14 9 -25 9 -10 0 -27 4 -37 9 -9 5 -48 23 -87 41 -187 88 -364 264 -451 448 -20 42 -40 85 -45 94 -5 10 -9 27 -9 37 0 11 -4 22 -9 25 -10 7 -18 46 -32 171 -22 194 -29 105 -29 -393z"/>
<path d="M10225 988 c-3 -7 -9 -51 -15 -98 -14 -121 -21 -159 -31 -166 -5 -3 -9 -14 -9 -25 0 -10 -4 -27 -9 -37 -5 -9 -25 -52 -45 -94 -87 -184 -264 -360 -451 -448 -38 -18 -78 -36 -87 -41 -10 -5 -27 -9 -37 -9 -11 0 -22 -4 -25 -9 -7 -10 -46 -18 -171 -32 -194 -22 -105 -29 393 -29 l502 0 0 500 c0 275 -2 500 -5 500 -3 0 -8 -6 -10 -12z"/>
</g>
</g>
  <g id="id11:id11" transform="matrix(1.25,0,0,1.25,0.0,0.0)"><g transform="translate(0.000000,409.600000) scale(0.040000,-0.040000)" fill="#565656" stroke="none">
<path d="M0 9738 c0 -498 7 -587 29 -393 14 125 22 164 32 171 5 3 9 14 9 25 0 10 4 27 9 37 5 9 25 52 45 94 87 184 260 357 443 443 43 21 86 41 95 46 10 5 27 9 37 9 11 0 22 4 25 9 7 10 46 18 171 32 194 22 105 29 -393 29 l-502 0 0 -502z"/>
<path d="M9246 10231 c5 -5 50 -14 99 -20 125 -14 164 -22 171 -32 3 -5 14 -9 25 -9 10 0 27 -4 37 -9 9 -5 52 -25 95 -46 183 -86 356 -259 443 -443 20 -42 40 -85 45 -94 5 -10 9 -27 9 -37 0 -11 4 -22 9 -25 10 -7 18 -46 32 -171 22 -194 29 -105 29 393 l0 502 -502 0 c-310 0 -498 -4 -492 -9z"/>
<path d="M2150 7680 c0 -5 22 -7 53 -3 71 8 72 13 4 13 -31 0 -57 -4 -57 -10z"/>
<path d="M3728 7682 c10 -7 12 -85 10 -375 -2 -201 0 -363 5 -358 4 4 6 171 5 371 -3 313 -5 364 -18 367 -11 4 -12 2 -2 -5z"/>
<path d="M2115 7670 c-3 -5 -2 -10 4 -10 5 0 13 5 16 10 3 6 2 10 -4 10 -5 0 -13 -4 -16 -10z"/>
<path d="M2040 7661 c0 -5 9 -7 20 -4 11 3 20 7 20 9 0 2 -9 4 -20 4 -11 0 -20 -4 -20 -9z"/>
<path d="M1969 7633 c-13 -15 -12 -15 11 -3 34 17 36 20 18 20 -9 0 -22 -7 -29 -17z"/>
<path d="M1930 7619 c0 -5 5 -7 10 -4 6 3 10 8 10 11 0 2 -4 4 -10 4 -5 0 -10 -5 -10 -11z"/>
<path d="M1800 7549 c0 -5 5 -7 10 -4 6 3 10 8 10 11 0 2 -4 4 -10 4 -5 0 -10 -5 -10 -11z"/>
<path d="M1777 7543 c-4 -3 -7 -11 -7 -17 0 -6 5 -5 12 2 6 6 9 14 7 17 -3 3 -9 2 -12 -2z"/>
<path d="M1735 7510 c-3 -5 -2 -10 4 -10 5 0 13 5 16 10 3 6 2 10 -4 10 -5 0 -13 -4 -16 -10z"/>
<path d="M1641 7425 c-17 -19 -28 -35 -25 -35 10 0 67 61 61 66 -2 2 -18 -12 -36 -31z"/>
<path d="M4020 4967 c0 -1863 3 -2416 12 -2425 16 -16 4803 -18 4813 -2 4 7 -803 11 -2402 12 l-2408 3 -2 2407 -3 2407 361 0 c199 0 364 3 367 6 3 3 -162 5 -366 5 l-372 0 0 -2413z"/>
<path d="M4765 5315 c0 -1127 1 -1587 2 -1022 2 566 2 1488 0 2050 -1 562 -2 100 -2 -1028z"/>
<path d="M1562 7338 c-7 -7 -12 -18 -12 -25 0 -7 -4 -13 -10 -13 -5 0 -10 -8 -10 -17 0 -11 9 -4 26 20 25 38 29 58 6 35z"/>
<path d="M1477 7193 c-4 -3 -7 -11 -7 -17 0 -6 5 -5 12 2 6 6 9 14 7 17 -3 3 -9 2 -12 -2z"/>
<path d="M1457 7153 c-4 -3 -7 -11 -7 -17 0 -6 5 -5 12 2 6 6 9 14 7 17 -3 3 -9 2 -12 -2z"/>
<path d="M1410 7010 c0 -11 2 -20 4 -20 2 0 6 9 9 20 3 11 1 20 -4 20 -5 0 -9 -9 -9 -20z"/>
<path d="M1407 6963 c-4 -3 -7 -11 -7 -17 0 -6 5 -5 12 2 6 6 9 14 7 17 -3 3 -9 2 -12 -2z"/>
<path d="M2240 6940 c-12 -8 -11 -10 8 -10 12 0 22 5 22 10 0 13 -11 13 -30 0z"/>
<path d="M1390 4744 c0 -1881 2 -2187 14 -2200 12 -12 75 -14 365 -14 224 0 351 4 351 10 0 6 -131 11 -357 12 l-358 3 0 2188 c0 1203 -3 2187 -7 2187 -5 0 -8 -984 -8 -2186z"/>
<path d="M2170 6905 c-19 -23 -8 -25 14 -4 11 11 15 19 9 19 -6 0 -16 -7 -23 -15z"/>
<path d="M2137 6820 c-4 -19 -7 -107 -5 -195 l3 -160 800 0 800 0 -792 2 -793 3 -2 193 c-2 123 -6 180 -11 157z"/>
<path d="M3745 6100 c0 -201 1 -283 2 -182 2 100 2 264 0 365 -1 100 -2 18 -2 -183z"/>
<path d="M2137 5733 c-12 -11 -8 -3173 3 -3173 7 0 10 535 10 1585 l0 1585 793 3 792 2 -796 3 c-438 1 -799 -1 -802 -5z"/>
<path d="M8845 2910 c0 -195 1 -275 2 -178 2 98 2 258 0 355 -1 98 -2 18 -2 -177z"/>
<path d="M0 502 l0 -502 502 0 c498 0 587 7 393 29 -125 14 -164 22 -171 32 -3 5 -14 9 -25 9 -10 0 -27 4 -37 9 -9 5 -48 23 -87 41 -187 88 -364 264 -451 448 -20 42 -40 85 -45 94 -5 10 -9 27 -9 37 0 11 -4 22 -9 25 -10 7 -18 46 -32 171 -22 194 -29 105 -29 -393z"/>
<path d="M10225 988 c-3 -7 -9 -51 -15 -98 -14 -121 -21 -159 -31 -166 -5 -3 -9 -14 -9 -25 0 -10 -4 -27 -9 -37 -5 -9 -25 -52 -45 -94 -87 -184 -264 -360 -451 -448 -38 -18 -78 -36 -87 -41 -10 -5 -27 -9 -37 -9 -11 0 -22 -4 -25 -9 -7 -10 -46 -18 -171 -32 -194 -22 -105 -29 393 -29 l502 0 0 500 c0 275 -2 500 -5 500 -3 0 -8 -6 -10 -12z"/>
</g>
</g>
  <g id="id12:id12" transform="matrix(1.25,0,0,1.25,0.0,0.0)"><g transform="translate(0.000000,409.600000) scale(0.040000,-0.040000)" fill="#000000" stroke="none">
<path d="M0 5120 l0 -5120 5120 0 5120 0 0 5120 0 5120 -5120 0 -5120 0 0 -5120z m3728 2562 c9 -7 12 -88 10 -373 l-3 -364 -755 -5 c-821 -5 -784 -3 -820 -63 -18 -29 -20 -51 -20 -219 l0 -188 800 0 800 0 0 -370 0 -370 -800 0 -800 0 -2 -1592 -3 -1593 -368 -3 -367 -2 2 2217 c3 2100 4 2221 21 2278 72 239 241 451 445 554 101 51 227 85 352 94 100 8 1496 6 1508 -1z m1032 -2357 l0 -2045 2043 -2 2042 -3 0 -365 0 -365 -2405 0 -2405 0 -3 2413 -2 2412 365 0 365 0 0 -2045z"/>
</g>
</g>
  <g id="id13:id13" transform="matrix(1.25,0,0,1.25,0.0,0.0)"><g transform="translate(0.000000,409.600000) scale(0.040000,-0.040000)" fill="#383838" stroke="none">
<path d="M0 9738 c0 -498 7 -587 29 -393 14 125 22 164 32 171 5 3 9 14 9 25 0 10 4 27 9 37 5 9 25 52 45 94 87 184 260 357 443 443 43 21 86 41 95 46 10 5 27 9 37 9 11 0 22 4 25 9 7 10 46 18 171 32 194 22 105 29 -393 29 l-502 0 0 -502z"/>
<path d="M9246 10231 c5 -5 50 -14 99 -20 125 -14 164 -22 171 -32 3 -5 14 -9 25 -9 10 0 27 -4 37 -9 9 -5 52 -25 95 -46 183 -86 356 -259 443 -443 20 -42 40 -85 45 -94 5 -10 9 -27 9 -37 0 -11 4 -22 9 -25 10 -7 18 -46 32 -171 22 -194 29 -105 29 393 l0 502 -502 0 c-310 0 -498 -4 -492 -9z"/>
<path d="M2138 7682 c-10 -4 347 -6 792 -4 l810 2 0 -365 0 -365 -732 -1 c-403 -1 -746 -4 -763 -8 -16 -3 310 -5 725 -3 415 1 761 4 768 7 10 3 12 83 10 372 l-3 368 -795 2 c-437 1 -803 -1 -812 -5z"/>
<path d="M2013 7656 c-44 -16 -54 -28 -12 -15 19 6 52 15 74 19 l40 7 -35 1 c-19 0 -49 -6 -67 -12z"/>
<path d="M1926 7621 c-4 -5 3 -7 14 -4 23 6 26 13 6 13 -8 0 -17 -4 -20 -9z"/>
<path d="M1885 7600 c-3 -6 1 -7 9 -4 18 7 21 14 7 14 -6 0 -13 -4 -16 -10z"/>
<path d="M1845 7580 c-3 -6 1 -7 9 -4 18 7 21 14 7 14 -6 0 -13 -4 -16 -10z"/>
<path d="M1779 7539 l-24 -20 28 17 c15 9 27 18 27 20 0 8 -8 4 -31 -17z"/>
<path d="M1724 7498 l-19 -23 23 19 c21 18 27 26 19 26 -2 0 -12 -10 -23 -22z"/>
<path d="M1649 7433 l-24 -28 28 24 c25 23 32 31 24 31 -2 0 -14 -12 -28 -27z"/>
<path d="M1583 7360 c-18 -21 -33 -40 -33 -44 0 -3 16 12 36 34 20 22 35 42 33 44 -2 1 -19 -14 -36 -34z"/>
<path d="M4020 4966 c0 -2018 2 -2415 14 -2425 10 -8 647 -10 2411 -9 2122 3 2399 5 2402 18 3 11 2 12 -4 2 -7 -10 -496 -12 -2409 -10 l-2399 3 0 2410 0 2410 360 0 360 0 5 -2045 5 -2045 2043 -5 c1123 -3 2042 -2 2042 3 0 5 -4022 14 -4067 8 -10 -2 -13 411 -13 2033 0 1119 -3 2041 -6 2050 -5 14 -48 16 -375 16 l-369 0 0 -2414z"/>
<path d="M1477 7188 c-35 -74 -50 -118 -45 -123 3 -3 11 14 18 37 8 24 21 57 30 73 20 36 31 65 25 65 -2 0 -15 -24 -28 -52z"/>
<path d="M1416 7035 c-3 -9 -5 -29 -5 -43 1 -20 3 -17 9 13 8 43 7 57 -4 30z"/>
<path d="M1396 6938 c-3 -13 -6 -1004 -6 -2203 0 -1683 3 -2184 12 -2193 9 -9 104 -12 364 -12 307 0 355 2 368 16 14 14 16 171 14 1602 l-3 1587 -2 -1584 c-2 -1159 -6 -1588 -14 -1598 -10 -11 -77 -13 -368 -11 l-356 3 0 2208 c0 1214 -1 2207 -1 2207 -1 0 -4 -10 -8 -22z"/>
<path d="M2189 6913 c-13 -16 -12 -17 4 -4 16 13 21 21 13 21 -2 0 -10 -8 -17 -17z"/>
<path d="M2144 6665 c0 -110 2 -156 3 -103 2 53 2 143 0 200 -1 57 -3 13 -3 -97z"/>
<path d="M3735 6100 c0 -202 3 -366 8 -363 4 2 7 166 7 363 0 197 -3 361 -7 363 -5 3 -8 -161 -8 -363z"/>
<path d="M0 502 l0 -502 502 0 c498 0 587 7 393 29 -125 14 -164 22 -171 32 -3 5 -14 9 -25 9 -10 0 -27 4 -37 9 -9 5 -48 23 -87 41 -187 88 -364 264 -451 448 -20 42 -40 85 -45 94 -5 10 -9 27 -9 37 0 11 -4 22 -9 25 -10 7 -18 46 -32 171 -22 194 -29 105 -29 -393z"/>
<path d="M10225 988 c-3 -7 -9 -51 -15 -98 -14 -121 -21 -159 -31 -166 -5 -3 -9 -14 -9 -25 0 -10 -4 -27 -9 -37 -5 -9 -25 -52 -45 -94 -87 -184 -264 -360 -451 -448 -38 -18 -78 -36 -87 -41 -10 -5 -27 -9 -37 -9 -11 0 -22 -4 -25 -9 -7 -10 -46 -18 -171 -32 -194 -22 -105 -29 393 -29 l502 0 0 500 c0 275 -2 500 -5 500 -3 0 -8 -6 -10 -12z"/>
</g>
</g>
  <g id="id14:id14" transform="matrix(1.25,0,0,1.25,0.0,0.0)"><g transform="translate(0.000000,409.600000) scale(0.040000,-0.040000)" fill="#1a1a1a" stroke="none">
<path d="M0 9738 c0 -498 7 -587 29 -393 14 125 22 164 32 171 5 3 9 14 9 25 0 10 4 27 9 37 5 9 25 52 45 94 87 184 260 357 443 443 43 21 86 41 95 46 10 5 27 9 37 9 11 0 22 4 25 9 7 10 46 18 171 32 194 22 105 29 -393 29 l-502 0 0 -502z"/>
<path d="M9246 10231 c5 -5 50 -14 99 -20 125 -14 164 -22 171 -32 3 -5 14 -9 25 -9 10 0 27 -4 37 -9 9 -5 52 -25 95 -46 183 -86 356 -259 443 -443 20 -42 40 -85 45 -94 5 -10 9 -27 9 -37 0 -11 4 -22 9 -25 10 -7 18 -46 32 -171 22 -194 29 -105 29 393 l0 502 -502 0 c-310 0 -498 -4 -492 -9z"/>
<path d="M2178 7683 c18 -2 45 -2 60 0 15 2 0 4 -33 4 -33 0 -45 -2 -27 -4z"/>
<path d="M3728 7683 c10 -8 12 -88 10 -376 -2 -201 0 -363 5 -358 4 4 6 171 5 371 -3 313 -5 364 -18 367 -11 4 -12 2 -2 -4z"/>
<path d="M2048 7663 c6 -2 18 -2 25 0 6 3 1 5 -13 5 -14 0 -19 -2 -12 -5z"/>
<path d="M1976 7641 c-4 -5 3 -7 14 -4 23 6 26 13 6 13 -8 0 -17 -4 -20 -9z"/>
<path d="M1649 7433 l-24 -28 28 24 c25 23 32 31 24 31 -2 0 -14 -12 -28 -27z"/>
<path d="M4020 4967 c0 -1863 3 -2416 12 -2425 9 -9 558 -12 2409 -12 1319 0 2400 3 2402 8 3 4 -1078 7 -2401 7 l-2407 0 -3 2412 -2 2413 367 3 368 2 -372 3 -373 2 0 -2413z"/>
<path d="M4765 5320 c0 -1125 1 -1585 2 -1023 2 563 2 1483 0 2045 -1 563 -2 103 -2 -1022z"/>
<path d="M1560 7335 c-7 -9 -11 -17 -9 -20 3 -2 10 5 17 15 14 24 10 26 -8 5z"/>
<path d="M1475 7189 c-4 -6 -5 -12 -2 -15 2 -3 7 2 10 11 7 17 1 20 -8 4z"/>
<path d="M1455 7149 c-4 -6 -5 -12 -2 -15 2 -3 7 2 10 11 7 17 1 20 -8 4z"/>
<path d="M1412 7010 c0 -14 2 -19 5 -12 2 6 2 18 0 25 -3 6 -5 1 -5 -13z"/>
<path d="M2238 6933 c6 -2 18 -2 25 0 6 3 1 5 -13 5 -14 0 -19 -2 -12 -5z"/>
<path d="M1395 4740 c0 -1207 1 -1701 2 -1098 2 604 2 1592 0 2195 -1 604 -2 110 -2 -1097z"/>
<path d="M2144 6660 c0 -107 2 -151 3 -97 2 53 2 141 0 195 -1 53 -3 9 -3 -98z"/>
<path d="M3745 6100 c0 -201 1 -283 2 -182 2 100 2 264 0 365 -1 100 -2 18 -2 -183z"/>
<path d="M2145 4145 c0 -875 1 -1231 2 -792 2 439 2 1155 0 1590 -1 436 -2 77 -2 -798z"/>
<path d="M1588 2533 c101 -2 263 -2 360 0 97 1 15 2 -183 2 -198 0 -278 -1 -177 -2z"/>
<path d="M0 502 l0 -502 502 0 c498 0 587 7 393 29 -125 14 -164 22 -171 32 -3 5 -14 9 -25 9 -10 0 -27 4 -37 9 -9 5 -48 23 -87 41 -187 88 -364 264 -451 448 -20 42 -40 85 -45 94 -5 10 -9 27 -9 37 0 11 -4 22 -9 25 -10 7 -18 46 -32 171 -22 194 -29 105 -29 -393z"/>
<path d="M10225 988 c-3 -7 -9 -51 -15 -98 -14 -121 -21 -159 -31 -166 -5 -3 -9 -14 -9 -25 0 -10 -4 -27 -9 -37 -5 -9 -25 -52 -45 -94 -87 -184 -264 -360 -451 -448 -38 -18 -78 -36 -87 -41 -10 -5 -27 -9 -37 -9 -11 0 -22 -4 -25 -9 -7 -10 -46 -18 -171 -32 -194 -22 -105 -29 393 -29 l502 0 0 500 c0 275 -2 500 -5 500 -3 0 -8 -6 -10 -12z"/>
</g>
</g>
  <g id="id15:id15" transform="matrix(1.25,0,0,1.25,0.0,0.0)"><g transform="translate(0.000000,409.600000) scale(0.040000,-0.040000)" fill="#000000" stroke="none">
<path d="M0 5120 l0 -5120 5120 0 5120 0 0 5120 0 5120 -5120 0 -5120 0 0 -5120z m3728 2562 c9 -7 12 -88 10 -373 l-3 -364 -755 -5 c-821 -5 -784 -3 -820 -63 -18 -29 -20 -51 -20 -219 l0 -188 800 0 800 0 0 -370 0 -370 -800 0 -800 0 -2 -1592 -3 -1593 -368 -3 -367 -2 2 2217 c3 2100 4 2221 21 2278 72 239 241 451 445 554 101 51 227 85 352 94 100 8 1496 6 1508 -1z m1032 -2357 l0 -2045 2043 -2 2042 -3 0 -365 0 -365 -2405 0 -2405 0 -3 2413 -2 2412 365 0 365 0 0 -2045z"/>
</g>
</g>
</svg>
